<svg width="277" height="52" viewBox="0 0 277 52" fill="none" xmlns="http://www.w3.org/2000/svg">
<path d="M15.8438 42.6562C15.8438 43.5537 16.5713 44.2812 17.4688 44.2812H34.5312C35.4287 44.2812 36.1562 43.5537 36.1562 42.6562V36.1562H15.8438V42.6562Z" fill="black"/>
<path d="M42.6562 36.1562C43.5537 36.1562 44.2812 35.4287 44.2812 34.5312V17.4688C44.2812 16.5713 43.5537 15.8438 42.6562 15.8438H36.1562V36.1562H42.6562Z" fill="black"/>
<path d="M9.34375 36.1562C8.44628 36.1562 7.71875 35.4287 7.71875 34.5312V17.4688C7.71875 16.5713 8.44628 15.8438 9.34375 15.8438H15.8438V36.1562H9.34375Z" fill="black"/>
<path d="M15.8438 9.34375C15.8438 8.44628 16.5713 7.71875 17.4688 7.71875H34.5312C35.4287 7.71875 36.1562 8.44628 36.1562 9.34375V15.8438H15.8438V9.34375Z" fill="black"/>
<path d="M265.238 41.0078C263.168 41.0078 261.306 40.5586 259.652 39.6602C258.012 38.7617 256.71 37.4857 255.746 35.832C254.796 34.1654 254.32 32.1992 254.32 29.9336C254.32 27.681 254.789 25.7279 255.727 24.0742C256.677 22.4206 257.966 21.1445 259.594 20.2461C261.234 19.3477 263.103 18.8984 265.199 18.8984C266.358 18.8984 267.53 19.0742 268.715 19.4258C269.913 19.7773 271.013 20.4023 272.016 21.3008C273.018 22.1862 273.826 23.4297 274.438 25.0312C275.049 26.6198 275.355 28.651 275.355 31.125H258.051V27.8047H270.16L269.555 28.8398C269.451 27.4336 269.19 26.3008 268.773 25.4414C268.357 24.582 267.829 23.957 267.191 23.5664C266.553 23.1758 265.837 22.9805 265.043 22.9805C264.014 22.9805 263.155 23.2734 262.465 23.8594C261.775 24.4453 261.254 25.2656 260.902 26.3203C260.564 27.362 260.395 28.5729 260.395 29.9531C260.395 32.0365 260.785 33.6836 261.566 34.8945C262.361 36.1055 263.572 36.7109 265.199 36.7109C266.254 36.7109 267.159 36.4375 267.914 35.8906C268.682 35.3438 269.268 34.5104 269.672 33.3906L274.945 34.7383C274.451 36.1966 273.702 37.388 272.699 38.3125C271.697 39.237 270.544 39.9206 269.242 40.3633C267.953 40.793 266.618 41.0078 265.238 41.0078Z" fill="black"/>
<path d="M241.938 41.0078C240.349 41.0078 238.852 40.7799 237.445 40.3242C236.039 39.8555 234.854 39.1328 233.891 38.1562C232.927 37.1797 232.315 35.9102 232.055 34.3477L237.367 33.293C237.484 34.4779 237.901 35.3763 238.617 35.9883C239.346 36.5872 240.382 36.8867 241.723 36.8867C243.012 36.8867 243.969 36.6328 244.594 36.125C245.219 35.6042 245.531 34.9987 245.531 34.3086C245.531 33.6966 245.284 33.1693 244.789 32.7266C244.307 32.2839 243.467 31.9714 242.27 31.7891L240.355 31.4766C239.6 31.3594 238.793 31.2031 237.934 31.0078C237.087 30.7995 236.286 30.4935 235.531 30.0898C234.776 29.6732 234.158 29.1003 233.676 28.3711C233.194 27.6419 232.953 26.7044 232.953 25.5586C232.953 24.1654 233.324 22.974 234.066 21.9844C234.822 20.9818 235.863 20.2201 237.191 19.6992C238.52 19.1654 240.036 18.8984 241.742 18.8984C243.318 18.8984 244.757 19.1328 246.059 19.6016C247.361 20.0573 248.448 20.7344 249.32 21.6328C250.206 22.5182 250.779 23.6185 251.039 24.9336L245.727 26.0273C245.635 25.4935 245.46 24.9922 245.199 24.5234C244.952 24.0547 244.568 23.6771 244.047 23.3906C243.526 23.0911 242.823 22.9414 241.938 22.9414C240.935 22.9414 240.134 23.1367 239.535 23.5273C238.949 23.918 238.656 24.4518 238.656 25.1289C238.656 25.6237 238.819 26.0273 239.145 26.3398C239.483 26.6523 239.939 26.9062 240.512 27.1016C241.098 27.2839 241.755 27.4401 242.484 27.5703L244.672 27.9414C245.792 28.1237 246.853 28.4427 247.855 28.8984C248.871 29.3411 249.698 29.9792 250.336 30.8125C250.974 31.6458 251.293 32.7396 251.293 34.0938C251.293 35.5911 250.883 36.8542 250.062 37.8828C249.255 38.9115 248.142 39.6927 246.723 40.2266C245.316 40.7474 243.721 41.0078 241.938 41.0078Z" fill="black"/>
<path d="M215.785 41.0078C214.444 41.0078 213.207 40.7734 212.074 40.3047C210.941 39.8229 210.03 39.1133 209.34 38.1758C208.663 37.2383 208.324 36.0664 208.324 34.6602C208.324 33.1497 208.76 31.8672 209.633 30.8125C210.505 29.7578 211.775 28.957 213.441 28.4102C215.108 27.8503 217.12 27.5703 219.477 27.5703H222.445L222.094 28.0977V26.8867C222.094 25.4935 221.84 24.4583 221.332 23.7812C220.824 23.0911 219.984 22.7461 218.812 22.7461C217.693 22.7461 216.833 23.0456 216.234 23.6445C215.648 24.2305 215.29 25.0703 215.16 26.1641L209.223 25.1484C209.444 23.9766 209.945 22.9219 210.727 21.9844C211.521 21.0339 212.615 20.2786 214.008 19.7188C215.401 19.1589 217.113 18.8789 219.145 18.8789C221.007 18.8789 222.582 19.1784 223.871 19.7773C225.16 20.3633 226.137 21.3203 226.801 22.6484C227.478 23.9766 227.816 25.7539 227.816 27.9805V35.1484C227.816 35.5911 227.875 35.8841 227.992 36.0273C228.122 36.1706 228.389 36.2422 228.793 36.2422H229.75V40.5H226.977C225.453 40.5 224.294 40.1224 223.5 39.3672C222.719 38.599 222.328 37.4987 222.328 36.0664V35.0703L223.344 35.4609C223.174 36.0208 222.927 36.6198 222.602 37.2578C222.276 37.8958 221.82 38.5013 221.234 39.0742C220.661 39.6341 219.932 40.0964 219.047 40.4609C218.161 40.8255 217.074 41.0078 215.785 41.0078ZM217.465 37.0234C218.376 37.0234 219.184 36.8151 219.887 36.3984C220.59 35.9818 221.143 35.3568 221.547 34.5234C221.951 33.6771 222.152 32.6289 222.152 31.3789V30.9297H219.691C218.298 30.9297 217.211 31.112 216.43 31.4766C215.661 31.8411 215.121 32.2904 214.809 32.8242C214.496 33.3451 214.34 33.8529 214.34 34.3477C214.34 34.7383 214.431 35.1419 214.613 35.5586C214.809 35.9753 215.128 36.3268 215.57 36.6133C216.026 36.8867 216.658 37.0234 217.465 37.0234Z" fill="black"/>
<path d="M196.625 41.0078C195.062 41.0078 193.669 40.6497 192.445 39.9336C191.234 39.2044 190.251 38.026 189.496 36.3984L189.789 36.3594V40.5H184.281V11.2031H190.102V23.6445L189.711 23.332C190.44 21.7956 191.41 20.6758 192.621 19.9727C193.845 19.2565 195.212 18.8984 196.723 18.8984C198.493 18.8984 200.023 19.3411 201.312 20.2266C202.615 21.099 203.617 22.3685 204.32 24.0352C205.023 25.6888 205.375 27.6745 205.375 29.9922C205.375 32.3099 205.017 34.2956 204.301 35.9492C203.598 37.5898 202.589 38.8464 201.273 39.7188C199.971 40.5781 198.422 41.0078 196.625 41.0078ZM194.555 36.6133C195.974 36.6133 197.107 36.0208 197.953 34.8359C198.799 33.638 199.223 31.9844 199.223 29.875C199.223 27.7917 198.806 26.1771 197.973 25.0312C197.152 23.8724 196.026 23.293 194.594 23.293C193.695 23.293 192.882 23.5339 192.152 24.0156C191.436 24.4974 190.863 25.2331 190.434 26.2227C190.017 27.1992 189.809 28.4297 189.809 29.9141C189.809 32.1406 190.264 33.8138 191.176 34.9336C192.087 36.0534 193.214 36.6133 194.555 36.6133Z" fill="black"/>
<path d="M166.293 41.0078C164.535 41.0078 163.005 40.5651 161.703 39.6797C160.401 38.7943 159.398 37.5247 158.695 35.8711C157.992 34.2174 157.641 32.2318 157.641 29.9141C157.641 27.5964 157.992 25.6172 158.695 23.9766C159.411 22.3229 160.421 21.0664 161.723 20.207C163.025 19.3346 164.581 18.8984 166.391 18.8984C167.94 18.8984 169.32 19.2565 170.531 19.9727C171.755 20.6888 172.751 21.8672 173.52 23.5078L172.914 23.5469V11.2031H178.734V40.5H173.227V36.2617L173.285 36.5547C172.582 38.0781 171.625 39.2044 170.414 39.9336C169.203 40.6497 167.829 41.0078 166.293 41.0078ZM168.422 36.6133C169.333 36.6133 170.147 36.3724 170.863 35.8906C171.579 35.4089 172.146 34.6732 172.562 33.6836C172.992 32.694 173.207 31.4635 173.207 29.9922C173.207 27.7656 172.751 26.0924 171.84 24.9727C170.928 23.8529 169.802 23.293 168.461 23.293C167.055 23.293 165.922 23.8854 165.062 25.0703C164.216 26.2552 163.793 27.9089 163.793 30.0312C163.793 32.1016 164.203 33.7161 165.023 34.875C165.857 36.0339 166.99 36.6133 168.422 36.6133Z" fill="black"/>
<path d="M141.176 41.0078C139.835 41.0078 138.598 40.7734 137.465 40.3047C136.332 39.8229 135.421 39.1133 134.73 38.1758C134.053 37.2383 133.715 36.0664 133.715 34.6602C133.715 33.1497 134.151 31.8672 135.023 30.8125C135.896 29.7578 137.165 28.957 138.832 28.4102C140.499 27.8503 142.51 27.5703 144.867 27.5703H147.836L147.484 28.0977V26.8867C147.484 25.4935 147.23 24.4583 146.723 23.7812C146.215 23.0911 145.375 22.7461 144.203 22.7461C143.083 22.7461 142.224 23.0456 141.625 23.6445C141.039 24.2305 140.681 25.0703 140.551 26.1641L134.613 25.1484C134.835 23.9766 135.336 22.9219 136.117 21.9844C136.911 21.0339 138.005 20.2786 139.398 19.7188C140.792 19.1589 142.504 18.8789 144.535 18.8789C146.397 18.8789 147.973 19.1784 149.262 19.7773C150.551 20.3633 151.527 21.3203 152.191 22.6484C152.868 23.9766 153.207 25.7539 153.207 27.9805V35.1484C153.207 35.5911 153.266 35.8841 153.383 36.0273C153.513 36.1706 153.78 36.2422 154.184 36.2422H155.141V40.5H152.367C150.844 40.5 149.685 40.1224 148.891 39.3672C148.109 38.599 147.719 37.4987 147.719 36.0664V35.0703L148.734 35.4609C148.565 36.0208 148.318 36.6198 147.992 37.2578C147.667 37.8958 147.211 38.5013 146.625 39.0742C146.052 39.6341 145.323 40.0964 144.438 40.4609C143.552 40.8255 142.465 41.0078 141.176 41.0078ZM142.855 37.0234C143.767 37.0234 144.574 36.8151 145.277 36.3984C145.98 35.9818 146.534 35.3568 146.938 34.5234C147.341 33.6771 147.543 32.6289 147.543 31.3789V30.9297H145.082C143.689 30.9297 142.602 31.112 141.82 31.4766C141.052 31.8411 140.512 32.2904 140.199 32.8242C139.887 33.3451 139.73 33.8529 139.73 34.3477C139.73 34.7383 139.822 35.1419 140.004 35.5586C140.199 35.9753 140.518 36.3268 140.961 36.6133C141.417 36.8867 142.048 37.0234 142.855 37.0234Z" fill="black"/>
<path d="M117.23 41.0078C115.603 41.0078 114.262 40.6367 113.207 39.8945C112.165 39.1523 111.391 38.1237 110.883 36.8086C110.375 35.4935 110.121 33.9766 110.121 32.2578V19.4062H115.941V31.5742C115.941 33.2799 116.234 34.5495 116.82 35.3828C117.406 36.2031 118.318 36.6133 119.555 36.6133C120.284 36.6133 120.974 36.4245 121.625 36.0469C122.289 35.6562 122.829 35.0117 123.246 34.1133C123.663 33.2148 123.871 31.9909 123.871 30.4414V19.4062H129.691V40.5H124.066V35.5586L124.203 36.418C123.578 37.8503 122.673 38.9766 121.488 39.7969C120.316 40.6042 118.897 41.0078 117.23 41.0078Z" fill="black"/>
<path d="M99.1836 48.1172V36.2617L99.5547 36.5547C98.8516 38.0781 97.8945 39.2044 96.6836 39.9336C95.4727 40.6497 94.099 41.0078 92.5625 41.0078C90.8047 41.0078 89.2747 40.5651 87.9727 39.6797C86.6706 38.7943 85.668 37.5247 84.9648 35.8711C84.2617 34.2174 83.9102 32.2318 83.9102 29.9141C83.9102 27.5964 84.2617 25.6172 84.9648 23.9766C85.681 22.3229 86.6901 21.0664 87.9922 20.207C89.2943 19.3346 90.8503 18.8984 92.6602 18.8984C94.2096 18.8984 95.5898 19.2565 96.8008 19.9727C98.0247 20.6888 99.0208 21.8672 99.7891 23.5078L99.4961 23.5469V19.4062H105.004V48.1172H99.1836ZM94.6914 36.6133C95.6029 36.6133 96.4167 36.3724 97.1328 35.8906C97.849 35.4089 98.4154 34.6732 98.832 33.6836C99.2617 32.694 99.4766 31.4635 99.4766 29.9922C99.4766 27.7656 99.0208 26.0924 98.1094 24.9727C97.1979 23.8529 96.0716 23.293 94.7305 23.293C93.3242 23.293 92.1914 23.8854 91.332 25.0703C90.4857 26.2552 90.0625 27.9089 90.0625 30.0312C90.0625 32.1016 90.4727 33.7161 91.293 34.875C92.1263 36.0339 93.2591 36.6133 94.6914 36.6133Z" fill="black"/>
<path d="M69.3008 41.0078C67.2044 41.0078 65.2708 40.6888 63.5 40.0508C61.7422 39.4128 60.2773 38.4362 59.1055 37.1211C57.9466 35.806 57.2044 34.1393 56.8789 32.1211L63.168 30.8516C63.2721 32.6224 63.8255 33.944 64.8281 34.8164C65.8438 35.6758 67.2891 36.1055 69.1641 36.1055C70.401 36.1055 71.3841 35.9427 72.1133 35.6172C72.8555 35.2917 73.3893 34.862 73.7148 34.3281C74.0404 33.7812 74.2031 33.1823 74.2031 32.5312C74.2031 31.4896 73.8125 30.6953 73.0312 30.1484C72.263 29.5885 71.2539 29.1849 70.0039 28.9375L67.1719 28.3906C66.1953 28.2083 65.1862 27.9609 64.1445 27.6484C63.1029 27.3229 62.1328 26.8672 61.2344 26.2812C60.349 25.6823 59.6263 24.9076 59.0664 23.957C58.5195 22.9935 58.2461 21.7891 58.2461 20.3438C58.2461 18.5078 58.7148 16.9583 59.6523 15.6953C60.6029 14.4323 61.8854 13.4818 63.5 12.8438C65.1276 12.1927 66.9701 11.8672 69.0273 11.8672C71.0326 11.8672 72.8294 12.1732 74.418 12.7852C76.0195 13.3971 77.3411 14.2891 78.3828 15.4609C79.4245 16.6198 80.1146 18.0391 80.4531 19.7188L74.2812 20.9883C74.1641 20.1289 73.9232 19.3867 73.5586 18.7617C73.207 18.1237 72.6862 17.6354 71.9961 17.2969C71.306 16.9453 70.388 16.7695 69.2422 16.7695C68.2266 16.7695 67.3672 16.9062 66.6641 17.1797C65.974 17.4531 65.4466 17.8307 65.082 18.3125C64.7305 18.7812 64.5547 19.3346 64.5547 19.9727C64.5547 20.8971 64.9974 21.6133 65.8828 22.1211C66.7812 22.6159 68.0117 23.013 69.5742 23.3125L72.4844 23.8984C73.8385 24.1589 75.1406 24.5951 76.3906 25.207C77.6406 25.806 78.6628 26.6654 79.457 27.7852C80.2513 28.9049 80.6484 30.3698 80.6484 32.1797C80.6484 34.0807 80.1667 35.6888 79.2031 37.0039C78.2396 38.319 76.9049 39.3151 75.1992 39.9922C73.5065 40.6693 71.5404 41.0078 69.3008 41.0078Z" fill="black"/>
</svg>
